<svg width="1920" height="2032" viewBox="0 0 1920 2032" fill="none" xmlns="http://www.w3.org/2000/svg">
<g opacity="0.04">
<path d="M712.495 987.53C759.464 972.429 807.622 961.846 856.968 956.139V1439.74C612.732 1493.72 426.046 1735.94 412.61 2031.78H0C12.6042 1529.63 310.825 1110.72 712.376 987.649L712.495 987.53Z" fill="#002068"/>
<path d="M1920 2031.66H1507.39C1493.95 1735.82 1307.63 1494.08 1063.39 1439.62V956.023C1112.85 961.731 1161.01 972.433 1207.5 987.415C1609.18 1110.48 1907.4 1529.4 1920 2031.54V2031.66Z" fill="#002068"/>
<path d="M857.564 652.586V1131.9C808.455 1126.2 760.535 1115.73 713.805 1101.7C305.594 976.252 4.40088 545.688 4.40088 33.4328C4.40088 22.4933 4.40097 11.0782 5.23332 0.138672H415.584C415.108 11.0782 414.752 22.4933 414.752 33.4328C414.752 341.285 605.48 597.412 857.564 652.586Z" fill="#002068"/>
<path d="M1915.72 33.2942C1915.72 545.549 1614.53 976.114 1206.32 1101.56C1159.71 1115.59 1111.79 1126.18 1063.03 1131.76V652.447C1315 597.155 1505.37 340.671 1505.37 33.2942C1505.37 22.3547 1505.01 10.9395 1504.54 0H1914.89C1915.72 10.9395 1915.72 22.3547 1915.72 33.2942Z" fill="#002068"/>
</g>
</svg>
