<svg width="230" height="49" viewBox="0 0 230 49" fill="none" xmlns="http://www.w3.org/2000/svg">
<g clip-path="url(#clip0_2985_258)">
<path d="M183.721 37.1213C185.837 40.8093 188.756 43.7001 192.485 45.8051C195.543 47.5344 198.966 48.5554 202.77 48.8594V40.2931C200.811 40.0149 199.035 39.3811 197.444 38.4089C195.196 37.0266 193.423 35.1424 192.138 32.7478C190.852 30.3445 190.202 27.5885 190.202 24.4655C190.202 21.3424 190.837 18.572 192.106 16.1573C193.371 13.734 195.129 11.8355 197.377 10.456C199.009 9.46377 200.802 8.82423 202.773 8.55179V-0.00585938C198.893 0.280925 195.42 1.30761 192.348 3.06274C188.668 5.16487 185.782 8.05852 183.686 11.7466C181.595 15.4346 180.552 19.6475 180.552 24.3966C180.552 29.1458 181.61 33.4332 183.721 37.1213ZM226.834 37.1901C228.951 33.502 230.003 29.2634 230.003 24.4655C230.003 19.6676 228.951 15.4346 226.834 11.7466C224.717 8.05852 221.784 5.16773 218.041 3.06274C214.992 1.3535 211.572 0.335414 207.782 0.0142155V8.58907C209.697 8.88159 211.449 9.50678 213.038 10.4532C215.336 11.8355 217.126 13.7254 218.414 16.1229C219.709 18.5176 220.35 21.2822 220.35 24.3966C220.35 27.5111 219.706 30.3445 218.414 32.7449C217.129 35.1396 215.35 37.0238 213.073 38.4061C211.461 39.3869 209.697 40.0121 207.782 40.2902V48.8651C211.607 48.5668 215.053 47.5574 218.111 45.8366C221.811 43.7546 224.717 40.8695 226.834 37.1872V37.1901Z" fill="#002068"/>
<path d="M159.537 48.8485V43.2705H160.476V48.0025H163.044V48.8485H159.537Z" fill="#002068"/>
<path d="M164.301 48.8485L166.561 43.2705H167.558L169.826 48.8485H168.829L168.269 47.4776H165.846L165.295 48.8485H164.298H164.301ZM166.164 46.6574H167.954L167.062 44.4262L166.164 46.6574Z" fill="#002068"/>
<path d="M171.083 48.8485V43.2705H172.053L175.065 47.3027V43.2705H176.004V48.8485H175.065L172.018 44.7675V48.8485H171.08H171.083Z" fill="#002068"/>
<path d="M177.782 48.8485V43.2705H179.564C180.12 43.2705 180.613 43.3881 181.042 43.6261C181.47 43.8613 181.808 44.1911 182.053 44.6098C182.298 45.0285 182.421 45.5132 182.421 46.0609C182.421 46.6087 182.298 47.0847 182.053 47.5034C181.808 47.9222 181.47 48.252 181.042 48.4929C180.613 48.7309 180.12 48.8513 179.564 48.8513H177.782V48.8485ZM178.724 47.9881H179.566C179.832 47.9881 180.08 47.9394 180.313 47.8419C180.546 47.7443 180.747 47.6067 180.919 47.4317C181.091 47.2568 181.228 47.0503 181.324 46.818C181.421 46.5857 181.47 46.3334 181.47 46.0609C181.47 45.7885 181.421 45.539 181.324 45.3038C181.228 45.0686 181.091 44.865 180.919 44.6901C180.747 44.5152 180.543 44.3775 180.313 44.28C180.08 44.1825 179.832 44.1309 179.566 44.1309H178.724V47.9881Z" fill="#002068"/>
<path d="M73.9321 20.1807H56.769V28.701H73.9321V20.1807Z" fill="#002068"/>
<path d="M57.6813 10.5197C60.5618 8.97108 63.3372 8.72157 66.3459 8.46634C68.2351 8.30574 70.8619 8.21396 74.0047 8.52943C74.0047 5.95984 74.0106 3.39025 74.0135 0.82066C71.617 0.292977 69.0631 0.0233994 66.3547 0.0205315C60.9612 0.0147958 56.1945 1.05009 52.0604 3.11494C47.9263 5.18552 44.6757 8.0505 42.3142 11.7213C39.9439 15.3922 38.7661 19.6108 38.7603 24.3829C38.7544 29.155 39.9264 33.3822 42.2908 37.053C44.6465 40.7296 47.9205 43.6118 52.0983 45.7139C56.2848 47.8132 61.0953 48.8628 66.5442 48.8685C69.1739 48.8685 71.652 48.6276 73.9697 48.1258C73.9697 45.6049 73.9756 43.0812 73.9756 40.5604C70.9144 40.7296 68.3721 40.5948 66.55 40.4256C63.1273 40.1073 60.4859 39.852 57.693 38.355C55.1245 36.9813 53.1274 35.1 51.6901 32.7082C50.2528 30.3251 49.5386 27.5719 49.5415 24.466C49.5444 21.3114 50.2645 18.5468 51.7047 16.1579C53.1479 13.769 55.1332 11.8934 57.6813 10.5226V10.5197Z" fill="#002068"/>
<path d="M19.7723 0.00878906H0V8.73277H14.8949V48.8654H24.6207V8.73277H24.6265V4.78375C24.6265 2.14533 22.4545 0.00878906 19.7723 0.00878906Z" fill="#002068"/>
<path d="M38.0345 0.00878906H28.2183V8.73564H38.0345V0.00878906Z" fill="#0060A8"/>
<path d="M174.726 16.2491C174.726 19.4239 173.992 22.2315 172.519 24.7036C171.062 27.1699 169.047 29.1086 166.502 30.5281C163.939 31.9477 160.983 32.6532 157.63 32.6532H153.152V23.8661H157.415C159.595 23.8661 161.38 23.1549 162.767 21.7411C164.164 20.3129 164.864 18.4918 164.864 16.252C164.864 14.0122 164.094 12.217 162.558 10.8174C161.024 9.42368 159.039 8.72679 156.636 8.72679H148.126V48.8508H138.4V4.80358C138.4 2.14795 140.587 -0.00292969 143.287 -0.00292969H156.846C160.345 -0.00292969 163.447 0.685353 166.135 2.05332C168.834 3.43275 170.945 5.337 172.452 7.78327C173.971 10.2267 174.729 13.0486 174.729 16.252L174.726 16.2491Z" fill="#002068"/>
<path d="M100.733 23.8235C101.885 23.4593 103.066 23.2041 104.276 23.0664V34.7299C98.2873 36.0319 93.7101 41.8737 93.3806 49.0089H83.2642C83.5732 36.898 90.8851 26.7946 100.73 23.8264L100.733 23.8235Z" fill="#0060A8"/>
<path d="M130.34 49.006H120.223C119.894 41.8708 115.325 36.0405 109.337 34.727V23.0635C110.55 23.2011 111.73 23.4592 112.87 23.8206C122.719 26.7888 130.031 36.8922 130.34 49.0031V49.006Z" fill="#0060A8"/>
<path d="M104.29 15.7447V27.3049C103.086 27.1673 101.911 26.9149 100.765 26.5765C90.7568 23.5509 83.3721 13.1665 83.3721 0.811786C83.3721 0.547944 83.3721 0.272631 83.3925 0.00878906H93.4536C93.4419 0.272631 93.4332 0.547944 93.4332 0.811786C93.4332 8.23664 98.1095 14.414 104.29 15.7447Z" fill="#0060A8"/>
<path d="M130.235 0.808856C130.235 13.1635 122.85 23.548 112.841 26.5736C111.698 26.912 110.523 27.1672 109.328 27.302V15.7417C115.506 14.4082 120.173 8.22224 120.173 0.808856C120.173 0.545014 120.165 0.269701 120.153 0.00585938H130.214C130.235 0.269701 130.235 0.545014 130.235 0.808856Z" fill="#0060A8"/>
</g>
<defs>
<clipPath id="clip0_2985_258">
<rect width="230" height="49" fill="white"/>
</clipPath>
</defs>
</svg>
