<svg width="24" height="27" viewBox="0 0 24 27" fill="none" xmlns="http://www.w3.org/2000/svg">
<path d="M6 27C5.16667 27 4.45833 26.7083 3.875 26.125C3.29167 25.5417 3 24.8333 3 24C3 23.1667 3.29167 22.4583 3.875 21.875C4.45833 21.2917 5.16667 21 6 21C6.23333 21 6.45 21.025 6.65 21.075C6.85 21.125 7.04167 21.1917 7.225 21.275L8.65 19.5C8.18333 18.9833 7.85833 18.4 7.675 17.75C7.49167 17.1 7.45 16.45 7.55 15.8L5.525 15.125C5.24167 15.5417 4.88333 15.875 4.45 16.125C4.01667 16.375 3.53333 16.5 3 16.5C2.16667 16.5 1.45833 16.2083 0.875 15.625C0.291667 15.0417 0 14.3333 0 13.5C0 12.6667 0.291667 11.9583 0.875 11.375C1.45833 10.7917 2.16667 10.5 3 10.5C3.83333 10.5 4.54167 10.7917 5.125 11.375C5.70833 11.9583 6 12.6667 6 13.5C6 13.5333 6 13.5667 6 13.6C6 13.6333 6 13.6667 6 13.7L8.025 14.4C8.35833 13.8 8.80417 13.2917 9.3625 12.875C9.92083 12.4583 10.55 12.1917 11.25 12.075V9.9C10.6 9.71667 10.0625 9.3625 9.6375 8.8375C9.2125 8.3125 9 7.7 9 7C9 6.16667 9.29167 5.45833 9.875 4.875C10.4583 4.29167 11.1667 4 12 4C12.8333 4 13.5417 4.29167 14.125 4.875C14.7083 5.45833 15 6.16667 15 7C15 7.7 14.7833 8.3125 14.35 8.8375C13.9167 9.3625 13.3833 9.71667 12.75 9.9V12.075C13.45 12.1917 14.0792 12.4583 14.6375 12.875C15.1958 13.2917 15.6417 13.8 15.975 14.4L18 13.7C18 13.6667 18 13.6333 18 13.6C18 13.5667 18 13.5333 18 13.5C18 12.6667 18.2917 11.9583 18.875 11.375C19.4583 10.7917 20.1667 10.5 21 10.5C21.8333 10.5 22.5417 10.7917 23.125 11.375C23.7083 11.9583 24 12.6667 24 13.5C24 14.3333 23.7083 15.0417 23.125 15.625C22.5417 16.2083 21.8333 16.5 21 16.5C20.4667 16.5 19.9792 16.375 19.5375 16.125C19.0958 15.875 18.7417 15.5417 18.475 15.125L16.45 15.8C16.55 16.45 16.5083 17.0958 16.325 17.7375C16.1417 18.3792 15.8167 18.9667 15.35 19.5L16.775 21.25C16.9583 21.1667 17.15 21.1042 17.35 21.0625C17.55 21.0208 17.7667 21 18 21C18.8333 21 19.5417 21.2917 20.125 21.875C20.7083 22.4583 21 23.1667 21 24C21 24.8333 20.7083 25.5417 20.125 26.125C19.5417 26.7083 18.8333 27 18 27C17.1667 27 16.4583 26.7083 15.875 26.125C15.2917 25.5417 15 24.8333 15 24C15 23.6667 15.0542 23.3458 15.1625 23.0375C15.2708 22.7292 15.4167 22.45 15.6 22.2L14.175 20.425C13.4917 20.8083 12.7625 21 11.9875 21C11.2125 21 10.4833 20.8083 9.8 20.425L8.4 22.2C8.58333 22.45 8.72917 22.7292 8.8375 23.0375C8.94583 23.3458 9 23.6667 9 24C9 24.8333 8.70833 25.5417 8.125 26.125C7.54167 26.7083 6.83333 27 6 27ZM3 14.5C3.28333 14.5 3.52083 14.4042 3.7125 14.2125C3.90417 14.0208 4 13.7833 4 13.5C4 13.2167 3.90417 12.9792 3.7125 12.7875C3.52083 12.5958 3.28333 12.5 3 12.5C2.71667 12.5 2.47917 12.5958 2.2875 12.7875C2.09583 12.9792 2 13.2167 2 13.5C2 13.7833 2.09583 14.0208 2.2875 14.2125C2.47917 14.4042 2.71667 14.5 3 14.5ZM6 25C6.28333 25 6.52083 24.9042 6.7125 24.7125C6.90417 24.5208 7 24.2833 7 24C7 23.7167 6.90417 23.4792 6.7125 23.2875C6.52083 23.0958 6.28333 23 6 23C5.71667 23 5.47917 23.0958 5.2875 23.2875C5.09583 23.4792 5 23.7167 5 24C5 24.2833 5.09583 24.5208 5.2875 24.7125C5.47917 24.9042 5.71667 25 6 25ZM12 8C12.2833 8 12.5208 7.90417 12.7125 7.7125C12.9042 7.52083 13 7.28333 13 7C13 6.71667 12.9042 6.47917 12.7125 6.2875C12.5208 6.09583 12.2833 6 12 6C11.7167 6 11.4792 6.09583 11.2875 6.2875C11.0958 6.47917 11 6.71667 11 7C11 7.28333 11.0958 7.52083 11.2875 7.7125C11.4792 7.90417 11.7167 8 12 8ZM12 19C12.7 19 13.2917 18.7583 13.775 18.275C14.2583 17.7917 14.5 17.2 14.5 16.5C14.5 15.8 14.2583 15.2083 13.775 14.725C13.2917 14.2417 12.7 14 12 14C11.3 14 10.7083 14.2417 10.225 14.725C9.74167 15.2083 9.5 15.8 9.5 16.5C9.5 17.2 9.74167 17.7917 10.225 18.275C10.7083 18.7583 11.3 19 12 19ZM18 25C18.2833 25 18.5208 24.9042 18.7125 24.7125C18.9042 24.5208 19 24.2833 19 24C19 23.7167 18.9042 23.4792 18.7125 23.2875C18.5208 23.0958 18.2833 23 18 23C17.7167 23 17.4792 23.0958 17.2875 23.2875C17.0958 23.4792 17 23.7167 17 24C17 24.2833 17.0958 24.5208 17.2875 24.7125C17.4792 24.9042 17.7167 25 18 25ZM21 14.5C21.2833 14.5 21.5208 14.4042 21.7125 14.2125C21.9042 14.0208 22 13.7833 22 13.5C22 13.2167 21.9042 12.9792 21.7125 12.7875C21.5208 12.5958 21.2833 12.5 21 12.5C20.7167 12.5 20.4792 12.5958 20.2875 12.7875C20.0958 12.9792 20 13.2167 20 13.5C20 13.7833 20.0958 14.0208 20.2875 14.2125C20.4792 14.4042 20.7167 14.5 21 14.5Z" fill="#42BEB3"/>
</svg>
