<svg width="16" height="24" viewBox="0 0 16 24" fill="none" xmlns="http://www.w3.org/2000/svg">
<path d="M6.95 17.55L12.6 11.9L11.175 10.475L6.95 14.7L4.85 12.6L3.425 14.025L6.95 17.55ZM8 24C5.68333 23.4167 3.77083 22.0875 2.2625 20.0125C0.754167 17.9375 0 15.6333 0 13.1V7L8 4L16 7V13.1C16 15.6333 15.2458 17.9375 13.7375 20.0125C12.2292 22.0875 10.3167 23.4167 8 24ZM8 21.9C9.73333 21.35 11.1667 20.25 12.3 18.6C13.4333 16.95 14 15.1167 14 13.1V8.375L8 6.125L2 8.375V13.1C2 15.1167 2.56667 16.95 3.7 18.6C4.83333 20.25 6.26667 21.35 8 21.9Z" fill="#42BEB3"/>
</svg>
