<svg width="122" height="63" viewBox="0 0 122 63" fill="none" xmlns="http://www.w3.org/2000/svg">
<path d="M11.2817 62.4644C19.6516 53.2919 33.8858 35.0645 29.5867 22.0253C28.2719 18.2052 24.8398 15.8239 20.8976 15.365C14.5144 14.6444 8.32847 17.4558 3.09816 20.9035C2.66138 21.1983 2.06718 21.0808 1.77451 20.644C1.47741 20.2006 1.60601 19.5953 2.05609 19.3093C4.8719 17.5245 7.8806 16.0102 11.0822 14.9858C18.4077 12.5469 27.7997 13.2742 30.6532 21.6506C34.8237 35.2397 20.1438 53.1966 11.2817 62.4644Z" fill="#42BEB3"/>
<path d="M11.2818 62.4644C18.8002 53.7354 27.5979 41.878 28.2631 30.0427C28.4072 26.4753 27.4316 22.5376 24.3165 20.4801C22.3854 19.203 19.9819 18.8881 17.7049 19.1276C11.8981 19.8548 6.86958 23.2848 2.5727 27.1116C1.94081 27.6814 0.96525 27.6304 0.395437 26.9985C-0.189897 26.3511 -0.11673 25.3357 0.557291 24.7814C3.04052 22.7238 5.71444 20.8592 8.6411 19.4025C14.388 16.4648 22.7512 14.9438 27.354 20.622C29.4847 23.256 30.0546 26.8522 29.8018 30.1248C28.6334 42.2771 19.3523 53.8263 11.2818 62.4644Z" fill="#42BEB3"/>
<path d="M11.282 62.464C16.4059 56.4666 21.042 49.9304 24.0995 42.6292C25.9952 37.8933 27.5583 32.6009 26.2701 27.5325C24.6427 21.6814 19.1884 21.351 14.3084 23.444C11.9582 24.4196 9.76545 25.8142 7.70348 27.3684C6.66806 28.1045 5.55725 26.6035 6.58159 25.8297C11.6257 22.2201 20.4101 17.7836 25.5517 23.4507C28.2766 26.7254 28.1148 31.3859 27.3077 35.3281C24.9597 45.649 18.2439 54.7195 11.2842 62.464H11.282Z" fill="#42BEB3"/>
<path d="M32.2363 0C23.8665 9.17244 9.63446 27.3998 13.9336 40.439C15.2483 44.2592 18.6805 46.6404 22.6227 47.0994C29.0059 47.82 35.1918 45.0086 40.4221 41.5609C40.8589 41.266 41.4531 41.3835 41.7458 41.8203C42.0429 42.2637 41.9143 42.869 41.4642 43.155C38.6484 44.9399 35.6397 46.4542 32.4381 47.4785C25.1125 49.9174 15.7206 49.1902 12.8671 40.8137C8.69438 27.2247 23.3743 9.26778 32.2363 0Z" fill="white"/>
<path d="M32.236 0C24.7176 8.72901 15.9198 20.5864 15.2547 32.4217C15.1106 35.9891 16.0861 39.9268 19.2013 41.9844C21.1324 43.2615 23.5358 43.5763 25.8129 43.3369C31.6196 42.6096 36.6482 39.1797 40.9451 35.3528C41.577 34.783 42.5525 34.834 43.1223 35.4659C43.7077 36.1133 43.6345 37.1288 42.9605 37.6831C40.4772 39.7406 37.8033 41.6052 34.8767 43.0619C29.1298 45.9997 20.7666 47.5207 16.1637 41.8425C14.033 39.2085 13.4632 35.6122 13.716 32.3397C14.8844 20.1874 24.1655 8.63811 32.236 0Z" fill="white"/>
<path d="M32.2366 0C27.1128 5.99745 22.4767 12.5337 19.4192 19.8348C17.5235 24.5707 15.9604 29.8631 17.2486 34.9316C18.876 40.7827 24.3302 41.113 29.2102 39.02C31.5604 38.0445 33.7532 36.6499 35.8152 35.0956C36.8506 34.3595 37.9614 35.8605 36.9371 36.6343C31.893 40.2439 23.1085 44.6805 17.9669 39.0134C15.242 35.7386 15.4039 31.0781 16.2109 27.136C18.5611 16.8128 25.2769 7.74458 32.2366 0Z" fill="white"/>
<path d="M51.6413 43.3418L50.3043 45.8206L48.9696 43.3418H48.3311L50.0095 46.3638V48.5233H50.5926V46.3638L52.271 43.3418H51.6413Z" fill="white"/>
<path d="M58.4949 43.3418H57.7721L55.7744 48.5233H56.3731L56.9318 47.0556H59.3263L59.8851 48.5233H60.4903L58.4949 43.3418ZM57.1358 46.519L58.1224 43.9005L59.1157 46.519H57.1358Z" fill="white"/>
<path d="M65.6271 47.9868V43.3418H65.0439V48.5233H67.6314V47.9868H65.6271Z" fill="white"/>
<path d="M72.8202 47.9868V43.3418H72.2393V48.5233H74.8245V47.9868H72.8202Z" fill="white"/>
<path d="M81.8259 43.3418H81.1031L79.1055 48.5233H79.7041L80.2628 47.0556H82.6574L83.2161 48.5233H83.8214L81.8259 43.3418ZM80.4646 46.519L81.4512 43.9005L82.4467 46.519H80.4646Z" fill="white"/>
<path d="M93.6348 43.3418V43.8784H94.9784V48.5233H95.5526V43.8784H96.8984V43.3418H93.6348Z" fill="white"/>
<path d="M102.024 47.9868V46.1687H103.873V45.6255H102.024V43.8784H104.106V43.3418H101.443V48.5233H104.186V47.9868H102.024Z" fill="white"/>
<path d="M112.725 47.3744C112.481 47.6227 112.243 47.8001 112.013 47.9087C111.782 48.0174 111.523 48.0728 111.232 48.0728C110.687 48.0728 110.221 47.891 109.833 47.5296C109.377 47.1083 109.151 46.5784 109.151 45.9354C109.151 45.3767 109.326 44.8956 109.678 44.4921C110.086 44.0309 110.605 43.8003 111.232 43.8003C111.527 43.8003 111.787 43.8513 112.013 43.9555C112.239 44.0597 112.467 44.2327 112.7 44.4765L113.097 44.0797C112.796 43.7848 112.503 43.5742 112.215 43.4456C111.926 43.3192 111.603 43.2549 111.239 43.2549C110.754 43.2549 110.301 43.3746 109.889 43.6141C109.483 43.8513 109.166 44.1728 108.933 44.5763C108.689 44.9909 108.567 45.4432 108.567 45.9354C108.567 46.4277 108.689 46.8755 108.933 47.2946C109.166 47.7003 109.483 48.0174 109.889 48.2524C110.301 48.4941 110.754 48.616 111.239 48.616C111.607 48.616 111.937 48.5495 112.23 48.4187C112.523 48.2856 112.822 48.0706 113.128 47.769L112.725 47.3744Z" fill="white"/>
<path d="M121.052 43.3418V45.6255H118.411V43.3418H117.828V48.5233H118.411V46.1687H121.052V48.5233H121.635V43.3418H121.052Z" fill="white"/>
<path d="M48.3594 22.9141V25.9959H52.337V39.4985H55.645V25.9959H59.6226V22.9141H48.3594Z" fill="white"/>
<path d="M65.64 36.4144V32.6364H71.1342V29.5767H65.64V25.9715H71.8304V22.9141H62.332V39.4985H72.0543V36.4144H65.64Z" fill="white"/>
<path d="M83.5906 30.8449L88.6147 22.9141H84.9098L81.7281 27.9603L78.5443 22.9141H74.7906L79.8369 30.8693L74.3184 39.4985H78.072L81.7015 33.7804L85.2823 39.4985H89.0869L83.5906 30.8449Z" fill="white"/>
<path d="M101.27 25.6744C100.822 24.7942 100.183 24.1246 99.3562 23.659C98.5093 23.1624 97.3164 22.9141 95.7755 22.9141H91.8223V39.4985H95.1281V33.4811H95.7755C97.3009 33.4811 98.4937 33.2417 99.3562 32.7605C100.068 32.3459 100.649 31.765 101.097 31.02C101.609 30.1731 101.866 29.2286 101.866 28.1843C101.866 27.2908 101.669 26.4527 101.27 25.6744ZM98.0614 29.8516C97.649 30.2662 96.9528 30.4724 95.9728 30.4724H95.1281V25.9472H95.9728C96.8841 25.9472 97.5559 26.129 97.9882 26.4948C98.4184 26.8584 98.6334 27.4304 98.6334 28.2109C98.6334 28.9403 98.4427 29.4858 98.0614 29.8516Z" fill="white"/>
<path d="M117.597 34.7985L117.579 34.8163C117.358 35.0468 117.202 35.2309 117.109 35.3683C117.018 35.5036 116.958 35.6588 116.93 35.8317C116.901 36.0047 116.914 36.1798 116.974 36.3528C117.032 36.5279 117.131 36.6831 117.273 36.8184C117.451 36.9891 117.659 37.0933 117.899 37.1332C118.138 37.1731 118.346 37.1465 118.528 37.0578C118.71 36.9669 118.914 36.8073 119.136 36.5745L119.289 36.4193L117.597 34.7985ZM118.264 31.9029C118.176 32.6944 117.927 33.4217 117.524 34.089L120.433 32.4904L118.264 31.9029ZM117.511 34.1112L117.508 34.1156L119.887 36.3949C120.085 36.1333 120.269 35.8583 120.439 35.5701C120.552 35.3794 120.657 35.1865 120.754 34.9914L117.511 34.1112ZM118.61 33.9649L120.938 34.5945C121.253 33.874 121.462 33.1268 121.561 32.3485L118.61 33.9649ZM121.375 29.107L118.298 31.4639L121.561 32.3485C121.61 31.9783 121.634 31.6014 121.634 31.2178C121.634 30.4928 121.548 29.7899 121.375 29.107ZM119.182 29.1048L119.415 30.0915L120.406 29.3332L119.182 29.1048ZM121.373 29.1048C121.176 28.3222 120.865 27.5683 120.439 26.8433C120.067 26.2136 119.63 25.6505 119.129 25.1472L116.978 26.9675L117.981 28.1537L117.601 28.3931L121.373 29.1048ZM119.364 36.9536C118.945 37.3904 118.515 37.6032 118.076 37.5899C117.635 37.5789 117.264 37.4281 116.963 37.1399C116.661 36.8494 116.497 36.4814 116.475 36.0379C116.46 35.7009 116.566 35.3706 116.797 35.0468C115.735 36.2086 114.431 36.7895 112.881 36.7895C111.506 36.7895 110.302 36.3084 109.276 35.3462C108.083 34.2354 107.487 32.8607 107.487 31.2178C107.487 29.7766 107.941 28.5261 108.852 27.4641C109.93 26.238 111.274 25.6239 112.881 25.6239C114.207 25.6239 115.367 26.0606 116.362 26.932L118.814 24.8589L118.918 24.9432C118.428 24.4842 117.883 24.0807 117.282 23.7348C115.923 22.9389 114.455 22.542 112.881 22.542C111.307 22.542 109.839 22.9389 108.48 23.7348C107.154 24.4975 106.101 25.533 105.323 26.8433C104.527 28.2024 104.13 29.6702 104.13 31.2444C104.13 32.8186 104.527 34.2287 105.323 35.5701C106.119 36.8804 107.17 37.9247 108.48 38.703C109.839 39.4989 111.307 39.8958 112.881 39.8958C114.455 39.8958 115.923 39.4989 117.282 38.703C118.287 38.1132 119.133 37.3704 119.825 36.4769L119.364 36.9536ZM118.79 29.0317L117.814 28.8521C118.107 29.4906 118.267 30.189 118.295 30.9473L119.098 30.3331L118.79 29.0317Z" fill="white"/>
<path d="M117.597 34.7985L117.579 34.8163C117.358 35.0468 117.202 35.2309 117.109 35.3683C117.018 35.5036 116.958 35.6588 116.93 35.8317C116.901 36.0047 116.914 36.1798 116.974 36.3528C117.032 36.5279 117.131 36.6831 117.273 36.8184C117.451 36.9891 117.659 37.0933 117.899 37.1332C118.138 37.1731 118.346 37.1465 118.528 37.0578C118.71 36.9669 118.914 36.8073 119.136 36.5745L119.289 36.4193L117.597 34.7985ZM118.264 31.9029C118.176 32.6944 117.927 33.4217 117.524 34.089L120.433 32.4904L118.264 31.9029ZM117.511 34.1112L117.508 34.1156L119.887 36.3949C120.085 36.1333 120.269 35.8583 120.439 35.5701C120.552 35.3794 120.657 35.1865 120.754 34.9914L117.511 34.1112ZM118.61 33.9649L120.938 34.5945C121.253 33.874 121.462 33.1268 121.561 32.3485L118.61 33.9649ZM121.375 29.107L118.298 31.4639L121.561 32.3485C121.61 31.9783 121.634 31.6014 121.634 31.2178C121.634 30.4928 121.548 29.7899 121.375 29.107ZM119.182 29.1048L119.415 30.0915L120.406 29.3332L119.182 29.1048ZM121.373 29.1048C121.176 28.3222 120.865 27.5683 120.439 26.8433C120.067 26.2136 119.63 25.6505 119.129 25.1472L116.978 26.9675L117.981 28.1537L117.601 28.3931L121.373 29.1048ZM119.364 36.9536C118.945 37.3904 118.515 37.6032 118.076 37.5899C117.635 37.5789 117.264 37.4281 116.963 37.1399C116.661 36.8494 116.497 36.4814 116.475 36.0379C116.46 35.7009 116.566 35.3706 116.797 35.0468C115.735 36.2086 114.431 36.7895 112.881 36.7895C111.506 36.7895 110.302 36.3084 109.276 35.3462C108.083 34.2354 107.487 32.8607 107.487 31.2178C107.487 29.7766 107.941 28.5261 108.852 27.4641C109.93 26.238 111.274 25.6239 112.881 25.6239C114.207 25.6239 115.367 26.0606 116.362 26.932L118.814 24.8589L118.918 24.9432C118.428 24.4842 117.883 24.0807 117.282 23.7348C115.923 22.9389 114.455 22.542 112.881 22.542C111.307 22.542 109.839 22.9389 108.48 23.7348C107.154 24.4975 106.101 25.533 105.323 26.8433C104.527 28.2024 104.13 29.6702 104.13 31.2444C104.13 32.8186 104.527 34.2287 105.323 35.5701C106.119 36.8804 107.17 37.9247 108.48 38.703C109.839 39.4989 111.307 39.8958 112.881 39.8958C114.455 39.8958 115.923 39.4989 117.282 38.703C118.287 38.1132 119.133 37.3704 119.825 36.4769L119.364 36.9536ZM118.79 29.0317L117.814 28.8521C118.107 29.4906 118.267 30.189 118.295 30.9473L119.098 30.3331L118.79 29.0317Z" fill="white"/>
</svg>
