<svg width="122" height="63" viewBox="0 0 122 63" fill="none" xmlns="http://www.w3.org/2000/svg">
<path d="M11.2818 62.4644C19.6516 53.292 33.8858 35.0646 29.5867 22.0254C28.272 18.2052 24.8398 15.824 20.8976 15.365C14.5144 14.6444 8.32849 17.4558 3.09818 20.9035C2.66139 21.1984 2.06719 21.0809 1.77453 20.6441C1.47742 20.2007 1.60602 19.5954 2.05611 19.3094C4.87192 17.5246 7.88062 16.0102 11.0822 14.9859C18.4078 12.547 27.7997 13.2742 30.6532 21.6507C34.8237 35.2398 20.1438 53.1966 11.2818 62.4644Z" fill="#42BEB3"/>
<path d="M11.2818 62.4644C18.8002 53.7354 27.5979 41.878 28.2631 30.0427C28.4072 26.4753 27.4316 22.5376 24.3165 20.48C22.3854 19.203 19.9819 18.8881 17.7049 19.1276C11.8981 19.8548 6.86958 23.2848 2.5727 27.1116C1.94081 27.6814 0.96525 27.6304 0.395437 26.9985C-0.189897 26.3511 -0.11673 25.3357 0.557291 24.7814C3.04052 22.7238 5.71444 20.8592 8.6411 19.4025C14.388 16.4647 22.7512 14.9438 27.354 20.6219C29.4847 23.2559 30.0546 26.8522 29.8018 30.1248C28.6334 42.2771 19.3523 53.8263 11.2818 62.4644Z" fill="#42BEB3"/>
<path d="M11.2818 62.4644C16.4057 56.467 21.0418 49.9307 24.0992 42.6296C25.9949 37.8937 27.558 32.6013 26.2699 27.5329C24.6424 21.6818 19.1882 21.3514 14.3082 23.4444C11.958 24.42 9.76522 25.8146 7.70325 27.3688C6.66783 28.1049 5.55703 26.6039 6.58136 25.8301C11.6254 22.2205 20.4099 17.784 25.5515 23.4511C28.2764 26.7258 28.1145 31.3863 27.3075 35.3284C24.9595 45.6494 18.2437 54.7198 11.284 62.4644H11.2818Z" fill="#42BEB3"/>
<path d="M32.2363 3.8147e-06C23.8664 9.17245 9.63441 27.3998 13.9335 40.439C15.2483 44.2592 18.6805 46.6404 22.6226 47.0994C29.0058 47.82 35.1918 45.0086 40.4221 41.5609C40.8589 41.266 41.4531 41.3835 41.7457 41.8203C42.0428 42.2637 41.9142 42.869 41.4641 43.1551C38.6483 44.9399 35.6396 46.4542 32.438 47.4785C25.1125 49.9174 15.7206 49.1902 12.867 40.8137C8.69433 27.2247 23.3742 9.26779 32.2363 3.8147e-06Z" fill="#32558D"/>
<path d="M32.2363 3.8147e-06C24.7178 8.72901 15.9201 20.5865 15.2549 32.4217C15.1108 35.9892 16.0864 39.9269 19.2015 41.9844C21.1327 43.2615 23.5361 43.5763 25.8131 43.3369C31.6199 42.6096 36.6484 39.1797 40.9453 35.3528C41.5772 34.783 42.5528 34.834 43.1226 35.4659C43.7079 36.1133 43.6347 37.1288 42.9607 37.6831C40.4775 39.7406 37.8036 41.6053 34.8769 43.0619C29.13 45.9997 20.7668 47.5207 16.164 41.8425C14.0333 39.2085 13.4635 35.6122 13.7162 32.3397C14.8847 20.1874 24.1658 8.63811 32.2363 3.8147e-06Z" fill="#32558D"/>
<path d="M32.2362 3.8147e-06C27.1124 5.99746 22.4763 12.5337 19.4188 19.8348C17.5231 24.5707 15.96 29.8631 17.2482 34.9316C18.8756 40.7827 24.3298 41.113 29.2098 39.02C31.56 38.0445 33.7528 36.6499 35.8148 35.0956C36.8502 34.3595 37.961 35.8606 36.9367 36.6343C31.8926 40.2439 23.1082 44.6805 17.9665 39.0134C15.2416 35.7386 15.4035 31.0781 16.2105 27.136C18.5607 16.8128 25.2765 7.74459 32.2362 3.8147e-06Z" fill="#32558D"/>
<path d="M51.641 43.3413L50.304 45.8201L48.9693 43.3413H48.3307L50.0091 46.3633V48.5228H50.5922V46.3633L52.2706 43.3413H51.641Z" fill="#32558D"/>
<path d="M58.4942 43.3413H57.7714L55.7738 48.5228H56.3724L56.9311 47.0551H59.3257L59.8844 48.5228H60.4897L58.4942 43.3413ZM57.1351 46.5185L58.1218 43.9L59.1151 46.5185H57.1351Z" fill="#32558D"/>
<path d="M65.6269 47.9863V43.3413H65.0438V48.5228H67.6312V47.9863H65.6269Z" fill="#32558D"/>
<path d="M72.8194 47.9863V43.3413H72.2385V48.5228H74.8237V47.9863H72.8194Z" fill="#32558D"/>
<path d="M81.8255 43.3413H81.1027L79.1051 48.5228H79.7037L80.2624 47.0551H82.657L83.2157 48.5228H83.821L81.8255 43.3413ZM80.4642 46.5185L81.4508 43.9L82.4464 46.5185H80.4642Z" fill="#32558D"/>
<path d="M93.6342 43.3413V43.8779H94.9778V48.5228H95.5521V43.8779H96.8979V43.3413H93.6342Z" fill="#32558D"/>
<path d="M102.024 47.9863V46.1682H103.873V45.625H102.024V43.8779H104.106V43.3413H101.443V48.5228H104.186V47.9863H102.024Z" fill="#32558D"/>
<path d="M112.724 47.3744C112.48 47.6227 112.243 47.8 112.012 47.9087C111.782 48.0173 111.522 48.0728 111.232 48.0728C110.686 48.0728 110.221 47.891 109.833 47.5296C109.376 47.1083 109.15 46.5784 109.15 45.9354C109.15 45.3767 109.325 44.8956 109.678 44.492C110.086 44.0309 110.604 43.8003 111.232 43.8003C111.527 43.8003 111.786 43.8513 112.012 43.9555C112.239 44.0597 112.467 44.2326 112.7 44.4765L113.097 44.0796C112.795 43.7847 112.502 43.5741 112.214 43.4455C111.926 43.3191 111.602 43.2548 111.239 43.2548C110.753 43.2548 110.301 43.3746 109.888 43.614C109.483 43.8513 109.165 44.1728 108.933 44.5763C108.689 44.9909 108.567 45.4432 108.567 45.9354C108.567 46.4276 108.689 46.8755 108.933 47.2945C109.165 47.7003 109.483 48.0173 109.888 48.2524C110.301 48.494 110.753 48.616 111.239 48.616C111.607 48.616 111.937 48.5495 112.23 48.4186C112.522 48.2856 112.822 48.0705 113.128 47.769L112.724 47.3744Z" fill="#32558D"/>
<path d="M121.052 43.3413V45.625H118.411V43.3413H117.828V48.5228H118.411V46.1682H121.052V48.5228H121.635V43.3413H121.052Z" fill="#32558D"/>
<path d="M48.3595 22.9145V25.9963H52.3371V39.4989H55.6452V25.9963H59.6228V22.9145H48.3595Z" fill="#32558D"/>
<path d="M65.6402 36.4148V32.6368H71.1343V29.5771H65.6402V25.9719H71.8305V22.9145H62.3322V39.4989H72.0545V36.4148H65.6402Z" fill="#32558D"/>
<path d="M83.5904 30.8453L88.6145 22.9145H84.9096L81.728 27.9608L78.5441 22.9145H74.7905L79.8367 30.8697L74.3182 39.4989H78.0719L81.7014 33.7808L85.2821 39.4989H89.0868L83.5904 30.8453Z" fill="#32558D"/>
<path d="M101.27 25.6748C100.822 24.7946 100.184 24.125 99.3567 23.6594C98.5098 23.1628 97.3169 22.9145 95.776 22.9145H91.8228V39.4989H95.1286V33.4815H95.776C97.3014 33.4815 98.4943 33.2421 99.3567 32.7609C100.068 32.3463 100.649 31.7654 101.097 31.0205C101.609 30.1735 101.867 29.229 101.867 28.1847C101.867 27.2912 101.669 26.4531 101.27 25.6748ZM98.0619 29.852C97.6495 30.2666 96.9533 30.4728 95.9733 30.4728H95.1286V25.9476H95.9733C96.8846 25.9476 97.5564 26.1294 97.9887 26.4952C98.4189 26.8588 98.6339 27.4308 98.6339 28.2113C98.6339 28.9407 98.4433 29.4862 98.0619 29.852Z" fill="#32558D"/>
<path d="M117.597 34.7985L117.58 34.8163C117.358 35.0468 117.203 35.2309 117.11 35.3683C117.019 35.5036 116.959 35.6588 116.93 35.8317C116.901 36.0047 116.915 36.1798 116.974 36.3528C117.032 36.5279 117.132 36.6831 117.274 36.8184C117.451 36.9891 117.659 37.0933 117.899 37.1332C118.138 37.1731 118.347 37.1465 118.529 37.0578C118.71 36.9669 118.914 36.8073 119.136 36.5745L119.289 36.4193L117.597 34.7985ZM118.265 31.9029C118.176 32.6944 117.928 33.4217 117.524 34.089L120.433 32.4904L118.265 31.9029ZM117.511 34.1112L117.509 34.1156L119.888 36.3949C120.085 36.1333 120.269 35.8583 120.44 35.5701C120.553 35.3794 120.657 35.1865 120.755 34.9914L117.511 34.1112ZM118.611 33.9649L120.939 34.5945C121.254 33.874 121.462 33.1268 121.562 32.3485L118.611 33.9649ZM121.375 29.107L118.298 31.4639L121.562 32.3485C121.611 31.9783 121.635 31.6014 121.635 31.2178C121.635 30.4928 121.548 29.7899 121.375 29.107ZM119.183 29.1048L119.416 30.0915L120.407 29.3332L119.183 29.1048ZM121.373 29.1048C121.176 28.3222 120.866 27.5683 120.44 26.8433C120.067 26.2136 119.631 25.6505 119.129 25.1472L116.979 26.9675L117.981 28.1536L117.602 28.3931L121.373 29.1048ZM119.365 36.9536C118.945 37.3904 118.515 37.6032 118.076 37.5899C117.635 37.5788 117.265 37.4281 116.963 37.1398C116.662 36.8494 116.498 36.4813 116.476 36.0379C116.46 35.7009 116.566 35.3705 116.797 35.0468C115.735 36.2086 114.431 36.7895 112.881 36.7895C111.507 36.7895 110.303 36.3084 109.276 35.3462C108.084 34.2354 107.487 32.8607 107.487 31.2178C107.487 29.7766 107.942 28.5261 108.853 27.4641C109.93 26.238 111.274 25.6239 112.881 25.6239C114.207 25.6239 115.367 26.0606 116.362 26.932L118.815 24.8589L118.919 24.9432C118.429 24.4842 117.883 24.0807 117.283 23.7348C115.923 22.9389 114.456 22.542 112.881 22.542C111.307 22.542 109.84 22.9389 108.48 23.7348C107.155 24.4975 106.101 25.533 105.323 26.8433C104.527 28.2024 104.13 29.6702 104.13 31.2444C104.13 32.8186 104.527 34.2287 105.323 35.5701C106.119 36.8804 107.17 37.9247 108.48 38.703C109.84 39.4989 111.307 39.8958 112.881 39.8958C114.456 39.8958 115.923 39.4989 117.283 38.703C118.287 38.1132 119.134 37.3704 119.826 36.4769L119.365 36.9536ZM118.79 29.0317L117.815 28.8521C118.107 29.4906 118.267 30.189 118.296 30.9473L119.098 30.3331L118.79 29.0317Z" fill="#32558D"/>
<path d="M117.597 34.7985L117.58 34.8163C117.358 35.0468 117.203 35.2309 117.11 35.3683C117.019 35.5036 116.959 35.6588 116.93 35.8317C116.901 36.0047 116.915 36.1798 116.974 36.3528C117.032 36.5279 117.132 36.6831 117.274 36.8184C117.451 36.9891 117.659 37.0933 117.899 37.1332C118.138 37.1731 118.347 37.1465 118.529 37.0578C118.71 36.9669 118.914 36.8073 119.136 36.5745L119.289 36.4193L117.597 34.7985ZM118.265 31.9029C118.176 32.6944 117.928 33.4217 117.524 34.089L120.433 32.4904L118.265 31.9029ZM117.511 34.1112L117.509 34.1156L119.888 36.3949C120.085 36.1333 120.269 35.8583 120.44 35.5701C120.553 35.3794 120.657 35.1865 120.755 34.9914L117.511 34.1112ZM118.611 33.9649L120.939 34.5945C121.254 33.874 121.462 33.1268 121.562 32.3485L118.611 33.9649ZM121.375 29.107L118.298 31.4639L121.562 32.3485C121.611 31.9783 121.635 31.6014 121.635 31.2178C121.635 30.4928 121.548 29.7899 121.375 29.107ZM119.183 29.1048L119.416 30.0915L120.407 29.3332L119.183 29.1048ZM121.373 29.1048C121.176 28.3222 120.866 27.5683 120.44 26.8433C120.067 26.2136 119.631 25.6505 119.129 25.1472L116.979 26.9675L117.981 28.1536L117.602 28.3931L121.373 29.1048ZM119.365 36.9536C118.945 37.3904 118.515 37.6032 118.076 37.5899C117.635 37.5788 117.265 37.4281 116.963 37.1398C116.662 36.8494 116.498 36.4813 116.476 36.0379C116.46 35.7009 116.566 35.3705 116.797 35.0468C115.735 36.2086 114.431 36.7895 112.881 36.7895C111.507 36.7895 110.303 36.3084 109.276 35.3462C108.084 34.2354 107.487 32.8607 107.487 31.2178C107.487 29.7766 107.942 28.5261 108.853 27.4641C109.93 26.238 111.274 25.6239 112.881 25.6239C114.207 25.6239 115.367 26.0606 116.362 26.932L118.815 24.8589L118.919 24.9432C118.429 24.4842 117.883 24.0807 117.283 23.7348C115.923 22.9389 114.456 22.542 112.881 22.542C111.307 22.542 109.84 22.9389 108.48 23.7348C107.155 24.4975 106.101 25.533 105.323 26.8433C104.527 28.2024 104.13 29.6702 104.13 31.2444C104.13 32.8186 104.527 34.2287 105.323 35.5701C106.119 36.8804 107.17 37.9247 108.48 38.703C109.84 39.4989 111.307 39.8958 112.881 39.8958C114.456 39.8958 115.923 39.4989 117.283 38.703C118.287 38.1132 119.134 37.3704 119.826 36.4769L119.365 36.9536ZM118.79 29.0317L117.815 28.8521C118.107 29.4906 118.267 30.189 118.296 30.9473L119.098 30.3331L118.79 29.0317Z" fill="#32558D"/>
</svg>
