<svg width="789" height="171" viewBox="0 0 789 171" fill="none" xmlns="http://www.w3.org/2000/svg">
<g clip-path="url(#clip0_1981_7)">
<path d="M630.17 129.44C637.43 142.3 647.44 152.38 660.23 159.72C670.72 165.75 682.46 169.31 695.51 170.37V140.5C688.79 139.53 682.7 137.32 677.24 133.93C669.53 129.11 663.45 122.54 659.04 114.19C654.63 105.81 652.4 96.2005 652.4 85.3105C652.4 74.4205 654.58 64.7605 658.93 56.3405C663.27 47.8905 669.3 41.2705 677.01 36.4605C682.61 33.0005 688.76 30.7705 695.52 29.8205V-0.0195312C682.21 0.980469 670.3 4.56047 659.76 10.6805C647.14 18.0105 637.24 28.1005 630.05 40.9605C622.88 53.8205 619.3 68.5105 619.3 85.0705C619.3 101.63 622.93 116.58 630.17 129.44ZM778.05 129.68C785.31 116.82 788.92 102.04 788.92 85.3105C788.92 68.5805 785.31 53.8205 778.05 40.9605C770.79 28.1005 760.73 18.0205 747.89 10.6805C737.43 4.72047 725.7 1.17047 712.7 0.0504688V29.9505C719.27 30.9705 725.28 33.1505 730.73 36.4505C738.61 41.2705 744.75 47.8605 749.17 56.2205C753.61 64.5705 755.81 74.2105 755.81 85.0705C755.81 95.9305 753.6 105.81 749.17 114.18C744.76 122.53 738.66 129.1 730.85 133.92C725.32 137.34 719.27 139.52 712.7 140.49V170.39C725.82 169.35 737.64 165.83 748.13 159.83C760.82 152.57 770.79 142.51 778.05 129.67V129.68Z" fill="white"/>
<path d="M547.22 170.33V150.88H550.44V167.38H559.25V170.33H547.22Z" fill="white"/>
<path d="M563.56 170.33L571.31 150.88H574.73L582.51 170.33H579.09L577.17 165.55H568.86L566.97 170.33H563.55H563.56ZM569.95 162.69H576.09L573.03 154.91L569.95 162.69Z" fill="white"/>
<path d="M586.82 170.33V150.88H590.15L600.48 164.94V150.88H603.7V170.33H600.48L590.03 156.1V170.33H586.81H586.82Z" fill="white"/>
<path d="M609.8 170.33V150.88H615.91C617.82 150.88 619.51 151.29 620.98 152.12C622.45 152.94 623.61 154.09 624.45 155.55C625.29 157.01 625.71 158.7 625.71 160.61C625.71 162.52 625.29 164.18 624.45 165.64C623.61 167.1 622.45 168.25 620.98 169.09C619.51 169.92 617.82 170.34 615.91 170.34H609.8V170.33ZM613.03 167.33H615.92C616.83 167.33 617.68 167.16 618.48 166.82C619.28 166.48 619.97 166 620.56 165.39C621.15 164.78 621.62 164.06 621.95 163.25C622.28 162.44 622.45 161.56 622.45 160.61C622.45 159.66 622.28 158.79 621.95 157.97C621.62 157.15 621.15 156.44 620.56 155.83C619.97 155.22 619.27 154.74 618.48 154.4C617.68 154.06 616.83 153.88 615.92 153.88H613.03V167.33Z" fill="white"/>
<path d="M253.59 70.3701H194.72V100.08H253.59V70.3701Z" fill="white"/>
<path d="M197.85 36.6804C207.73 31.2804 217.25 30.4104 227.57 29.5204C234.05 28.9604 243.06 28.6404 253.84 29.7404C253.84 20.7804 253.86 11.8204 253.87 2.86039C245.65 1.02039 236.89 0.0803951 227.6 0.0703951C209.1 0.0503951 192.75 3.66039 178.57 10.8604C164.39 18.0804 153.24 28.0704 145.14 40.8704C137.01 53.6704 132.97 68.3804 132.95 85.0204C132.93 101.66 136.95 116.4 145.06 129.2C153.14 142.02 164.37 152.07 178.7 159.4C193.06 166.72 209.56 170.38 228.25 170.4C237.27 170.4 245.77 169.56 253.72 167.81C253.72 159.02 253.74 150.22 253.74 141.43C243.24 142.02 234.52 141.55 228.27 140.96C216.53 139.85 207.47 138.96 197.89 133.74C189.08 128.95 182.23 122.39 177.3 114.05C172.37 105.74 169.92 96.1404 169.93 85.3104C169.94 74.3104 172.41 64.6704 177.35 56.3404C182.3 48.0104 189.11 41.4704 197.85 36.6904V36.6804Z" fill="white"/>
<path d="M67.82 0.0302734H0V30.4503H51.09V170.39H84.45V30.4503H84.47V16.6803C84.47 7.48027 77.02 0.0302734 67.82 0.0302734Z" fill="white"/>
<path d="M130.46 0.0302734H96.79V30.4603H130.46V0.0302734Z" fill="white"/>
<path d="M599.32 56.6602C599.32 67.7302 596.8 77.5202 591.75 86.1402C586.75 94.7402 579.84 101.5 571.11 106.45C562.32 111.4 552.18 113.86 540.68 113.86H525.32V83.2202H539.94C547.42 83.2202 553.54 80.7402 558.3 75.8102C563.09 70.8302 565.49 64.4802 565.49 56.6702C565.49 48.8602 562.85 42.6002 557.58 37.7202C552.32 32.8602 545.51 30.4302 537.27 30.4302H508.08V170.34H474.72V16.7502C474.72 7.49023 482.22 -0.00976562 491.48 -0.00976562H537.99C549.99 -0.00976562 560.63 2.39023 569.85 7.16023C579.11 11.9702 586.35 18.6102 591.52 27.1402C596.73 35.6602 599.33 45.5002 599.33 56.6702L599.32 56.6602Z" fill="white"/>
<path d="M345.52 83.0697C349.47 81.7997 353.52 80.9097 357.67 80.4297V121.1C337.13 125.64 321.43 146.01 320.3 170.89H285.6C286.66 128.66 311.74 93.4297 345.51 83.0797L345.52 83.0697Z" fill="white"/>
<path d="M447.07 170.88H412.37C411.24 146 395.57 125.67 375.03 121.09V80.4199C379.19 80.8999 383.24 81.7999 387.15 83.0599C420.93 93.4099 446.01 128.64 447.07 170.87V170.88Z" fill="white"/>
<path d="M357.72 54.9003V95.2103C353.59 94.7303 349.56 93.8503 345.63 92.6703C311.3 82.1203 285.97 45.9103 285.97 2.83027C285.97 1.91027 285.97 0.950273 286.04 0.0302734H320.55C320.51 0.950273 320.48 1.91027 320.48 2.83027C320.48 28.7203 336.52 50.2603 357.72 54.9003Z" fill="white"/>
<path d="M446.71 2.81953C446.71 45.8995 421.38 82.1095 387.05 92.6595C383.13 93.8395 379.1 94.7295 375 95.1995V54.8895C396.19 50.2395 412.2 28.6695 412.2 2.81953C412.2 1.89953 412.17 0.939531 412.13 0.0195312H446.64C446.71 0.939531 446.71 1.89953 446.71 2.81953Z" fill="white"/>
</g>
<defs>
<clipPath id="clip0_1981_7">
<rect width="788.91" height="170.86" fill="white"/>
</clipPath>
</defs>
</svg>
