<svg width="737" height="627" viewBox="0 0 737 627" fill="none" xmlns="http://www.w3.org/2000/svg">
<path d="M78.859 436.624C137.364 372.509 236.861 245.1 206.81 153.957C197.62 127.254 173.629 110.609 146.074 107.401C101.455 102.364 58.2158 122.016 21.6561 146.115C18.603 148.176 14.4496 147.355 12.4039 144.302C10.3271 141.202 11.226 136.971 14.3721 134.972C34.0545 122.496 55.0852 111.911 77.4642 104.751C128.669 87.7031 194.319 92.7864 214.265 151.338C243.416 246.325 140.804 371.842 78.859 436.624Z" fill="#42BEB3"/>
<path d="M78.859 436.623C131.413 375.608 192.908 292.725 197.558 209.997C198.565 185.061 191.746 157.536 169.971 143.154C156.473 134.227 139.673 132.027 123.757 133.701C83.1674 138.784 48.0181 162.759 17.9831 189.509C13.5662 193.492 6.74706 193.135 2.76409 188.718C-1.32737 184.193 -0.815937 177.095 3.89544 173.22C21.2531 158.838 39.9437 145.804 60.401 135.622C100.572 115.088 159.03 104.456 191.204 144.146C206.097 162.558 210.08 187.695 208.313 210.57C200.146 295.515 135.272 376.243 78.859 436.623Z" fill="#42BEB3"/>
<path d="M78.8591 436.624C114.675 394.702 147.081 349.014 168.453 297.98C181.703 264.876 192.629 227.882 183.625 192.454C172.25 151.555 134.125 149.246 100.014 163.876C83.5859 170.695 68.2585 180.443 53.8454 191.307C46.6079 196.453 38.8434 185.961 46.0034 180.552C81.2613 155.321 142.664 124.31 178.604 163.922C197.651 186.813 196.519 219.39 190.878 246.945C174.466 319.088 127.523 382.49 78.8746 436.624H78.8591Z" fill="#42BEB3"/>
<path d="M225.33 0C166.825 64.115 67.344 191.524 97.3945 282.667C106.585 309.37 130.576 326.015 158.131 329.223C202.75 334.26 245.989 314.608 282.548 290.509C285.602 288.448 289.755 289.269 291.801 292.322C293.877 295.422 292.979 299.653 289.832 301.652C270.15 314.128 249.119 324.713 226.74 331.873C175.535 348.921 109.886 343.837 89.94 285.286C60.7729 190.299 163.385 64.7814 225.33 0Z" fill="#32558D"/>
<path d="M225.33 0C172.777 61.0154 111.281 143.898 106.631 226.626C105.624 251.563 112.443 279.087 134.218 293.469C147.716 302.396 164.516 304.597 180.433 302.923C221.022 297.84 256.171 273.864 286.206 247.115C290.623 243.132 297.442 243.488 301.425 247.905C305.517 252.431 305.005 259.529 300.294 263.403C282.936 277.785 264.246 290.819 243.788 301.001C203.618 321.536 145.159 332.167 112.986 292.477C98.0921 274.066 94.1091 248.928 95.8759 226.053C104.043 141.109 168.918 60.38 225.33 0Z" fill="#32558D"/>
<path d="M225.33 0C189.514 41.9219 157.108 87.6099 135.736 138.645C122.486 171.748 111.56 208.742 120.564 244.17C131.939 285.069 170.064 287.378 204.175 272.748C220.603 265.929 235.931 256.181 250.344 245.317C257.581 240.172 265.346 250.664 258.186 256.073C222.928 281.303 161.525 312.315 125.585 272.702C106.538 249.811 107.67 217.235 113.311 189.679C129.739 117.521 176.682 54.1343 225.33 0Z" fill="#32558D"/>
<path d="M653.392 522.433L653.028 522.797C648.481 527.527 645.298 531.303 643.388 534.123C641.524 536.897 640.296 540.081 639.705 543.629C639.114 547.176 639.387 550.77 640.615 554.317C641.797 557.91 643.843 561.094 646.753 563.869C650.391 567.371 654.665 569.509 659.576 570.327C664.487 571.146 668.762 570.6 672.49 568.781C676.219 566.916 680.402 563.641 684.95 558.866L688.087 555.682L653.392 522.433ZM667.079 463.032C665.26 479.269 660.167 494.188 651.892 507.878L711.551 475.085L667.079 463.032ZM651.619 508.333L651.573 508.424L700.364 555.181C704.411 549.814 708.186 544.174 711.687 538.261C714.006 534.35 716.143 530.393 718.144 526.39L651.619 508.333ZM674.173 505.331L721.918 518.249C728.375 503.467 732.65 488.139 734.696 472.174L674.173 505.331ZM730.876 405.677L667.761 454.026L734.696 472.174C735.696 464.578 736.196 456.846 736.196 448.977C736.196 434.104 734.423 419.686 730.876 405.677ZM685.904 405.631L690.679 425.872L711.005 410.316L685.904 405.631ZM730.831 405.631C726.784 389.576 720.418 374.111 711.687 359.238C704.048 346.321 695.09 334.768 684.813 324.443L640.705 361.785L661.259 386.119L653.483 391.031L730.831 405.631ZM689.633 566.643C681.039 575.604 672.217 579.97 663.214 579.697C654.165 579.47 646.571 576.377 640.387 570.464C634.203 564.506 630.838 556.955 630.383 547.859C630.065 540.945 632.248 534.168 636.977 527.527C615.196 551.361 588.458 563.277 556.673 563.277C528.481 563.277 503.79 553.408 482.736 533.668C458.272 510.88 446.041 482.681 446.041 448.977C446.041 419.413 455.362 393.76 474.051 371.974C496.151 346.821 523.706 334.222 556.673 334.222C583.866 334.222 607.647 343.182 628.064 361.058L678.356 318.53L680.493 320.259C670.444 310.844 659.258 302.566 646.935 295.47C619.061 279.142 588.958 271 556.673 271C524.388 271 494.286 279.142 466.412 295.47C439.22 311.117 417.621 332.357 401.66 359.238C385.336 387.12 377.196 417.23 377.196 449.523C377.196 481.816 385.336 510.744 401.66 538.261C417.984 565.142 439.538 586.565 466.412 602.53C494.286 618.858 524.388 627 556.673 627C588.958 627 619.061 618.858 646.935 602.53C667.534 590.431 684.904 575.194 699.091 556.864L689.633 566.643ZM677.856 404.13L657.848 400.446C663.851 413.546 667.124 427.873 667.716 443.428L684.176 430.829L677.856 404.13Z" fill="#32558D"/>
<path d="M601.405 22.9826C599.309 18.8428 596.321 15.6936 592.451 13.5037C588.488 11.1679 582.906 10 575.695 10H557.196V88H572.666V59.6989H575.695C582.833 59.6989 588.415 58.5727 592.451 56.3099C595.782 54.3599 598.5 51.6278 600.596 48.1241C602.993 44.1406 604.196 39.6984 604.196 34.7869C604.196 30.5845 603.273 26.6428 601.405 22.9826ZM586.392 42.6286C584.462 44.5786 581.205 45.5484 576.619 45.5484H572.666V24.2652H576.619C580.883 24.2652 584.027 25.1203 586.05 26.8409C588.063 28.5511 589.069 31.2414 589.069 34.912C589.069 38.3428 588.177 40.908 586.392 42.6286Z" fill="#32558D"/>
<path d="M420.517 158.822L443.99 122H426.68L411.815 145.429L396.94 122H379.403L402.979 158.935L377.196 199H394.734L411.691 172.451L428.42 199H446.196L420.517 158.822Z" fill="#32558D"/>
<path d="M241.848 492.495V474.726H267.843V460.336H241.848V443.38H271.137V429H226.196V507H272.196V492.495H241.848Z" fill="#32558D"/>
<path d="M56.1962 547V561.495H74.5599V625H89.8324V561.495H108.196V547H56.1962Z" fill="#32558D"/>
</svg>
